<svg width="100" height="100" viewBox="0 0 100 100" xmlns="http://www.w3.org/2000/svg">
  <!-- 포도송이 전체 -->
  <g>
    <!-- 맨 위 꼭지 -->
    <rect x="47" y="8" width="6" height="8" rx="1" fill="#8B7355"/>
    
    <!-- 1열 (1개) -->
    <circle cx="50" cy="22" r="9" fill="#7B3F8F" stroke="#5D2E6D" stroke-width="1"/>
    <ellipse cx="47" cy="20" rx="3" ry="2" fill="#9B6FA8" opacity="0.6"/>
    
    <!-- 2열 (2개) -->
    <circle cx="42" cy="33" r="9" fill="#7B3F8F" stroke="#5D2E6D" stroke-width="1"/>
    <ellipse cx="39" cy="31" rx="3" ry="2" fill="#9B6FA8" opacity="0.6"/>
    
    <circle cx="58" cy="33" r="9" fill="#7B3F8F" stroke="#5D2E6D" stroke-width="1"/>
    <ellipse cx="55" cy="31" rx="3" ry="2" fill="#9B6FA8" opacity="0.6"/>
    
    <!-- 3열 (3개) -->
    <circle cx="35" cy="45" r="9" fill="#7B3F8F" stroke="#5D2E6D" stroke-width="1"/>
    <ellipse cx="32" cy="43" rx="3" ry="2" fill="#9B6FA8" opacity="0.6"/>
    
    <circle cx="50" cy="45" r="9" fill="#7B3F8F" stroke="#5D2E6D" stroke-width="1"/>
    <ellipse cx="47" cy="43" rx="3" ry="2" fill="#9B6FA8" opacity="0.6"/>
    
    <circle cx="65" cy="45" r="9" fill="#7B3F8F" stroke="#5D2E6D" stroke-width="1"/>
    <ellipse cx="62" cy="43" rx="3" ry="2" fill="#9B6FA8" opacity="0.6"/>
    
    <!-- 4열 (3개) -->
    <circle cx="40" cy="58" r="9" fill="#7B3F8F" stroke="#5D2E6D" stroke-width="1"/>
    <ellipse cx="37" cy="56" rx="3" ry="2" fill="#9B6FA8" opacity="0.6"/>
    
    <circle cx="53" cy="58" r="9" fill="#7B3F8F" stroke="#5D2E6D" stroke-width="1"/>
    <ellipse cx="50" cy="56" rx="3" ry="2" fill="#9B6FA8" opacity="0.6"/>
    
    <circle cx="60" cy="58" r="9" fill="#7B3F8F" stroke="#5D2E6D" stroke-width="1"/>
    <ellipse cx="57" cy="56" rx="3" ry="2" fill="#9B6FA8" opacity="0.6"/>
    
    <!-- 5열 (2개) -->
    <circle cx="45" cy="70" r="9" fill="#7B3F8F" stroke="#5D2E6D" stroke-width="1"/>
    <ellipse cx="42" cy="68" rx="3" ry="2" fill="#9B6FA8" opacity="0.6"/>
    
    <circle cx="58" cy="70" r="9" fill="#7B3F8F" stroke="#5D2E6D" stroke-width="1"/>
    <ellipse cx="55" cy="68" rx="3" ry="2" fill="#9B6FA8" opacity="0.6"/>
    
    <!-- 6열 (1개) -->
    <circle cx="51" cy="82" r="9" fill="#7B3F8F" stroke="#5D2E6D" stroke-width="1"/>
    <ellipse cx="48" cy="80" rx="3" ry="2" fill="#9B6FA8" opacity="0.6"/>
  </g>
</svg>
